Coordinates
version=1
nRows=41
nColumns=38
inDegrees=no

Units are S.I. units (second, meters, Newtons, ...)
If the header above contains a line with 'inDegrees', this indicates whether rotational values are in degrees (yes) or radians (no).

endheader
time	pelvis_tilt	pelvis_list	pelvis_rotation	pelvis_tx	pelvis_ty	pelvis_tz	hip_flexion_r	hip_adduction_r	hip_rotation_r	knee_angle_r	ankle_angle_r	subtalar_angle_r	mtp_angle_r	hip_flexion_l	hip_adduction_l	hip_rotation_l	knee_angle_l	ankle_angle_l	subtalar_angle_l	mtp_angle_l	lumbar_extension	lumbar_bending	lumbar_rotation	arm_flex_r	arm_add_r	arm_rot_r	elbow_flex_r	pro_sup_r	wrist_flex_r	wrist_dev_r	arm_flex_l	arm_add_l	arm_rot_l	elbow_flex_l	pro_sup_l	wrist_flex_l	wrist_dev_l
5.75	2.63943	1.49889	-1.09944	0.61873	1.82653	1.04882	0.196495	-0.015426	-0.0788972	0.596559	-0.187438	0	0	-0.0643504	-0.00172337	-0.227225	0.0784621	-0.462518	0	0	-0.200472	0.0277268	-0.0294954	0.794653	-0.374064	0.872299	1.17669	1.5708	0	0	0.586228	-0.341136	0.603045	1.20416	1.5708	0	0
5.76	2.756	1.49867	-1.21377	0.619445	1.82883	1.04843	0.188151	-0.0237817	-0.0839031	0.592401	-0.185953	0	0	-0.0708643	0.00592405	-0.226988	0.0780438	-0.460838	0	0	-0.200285	0.0206802	-0.0307441	0.794206	-0.370588	0.872537	1.17213	1.5708	0	0	0.588478	-0.341829	0.605324	1.19839	1.5708	0	0
5.77	2.88723	1.49741	-1.34232	0.620167	1.83119	1.04797	0.179115	-0.0341701	-0.0899405	0.587947	-0.184894	0	0	-0.0777973	0.014808	-0.226301	0.0779593	-0.45905	0	0	-0.199973	0.012453	-0.032289	0.793652	-0.36739	0.87342	1.16764	1.5708	0	0	0.590715	-0.342461	0.607901	1.19224	1.5708	0	0
5.78	3.01229	1.49423	-1.46462	0.620942	1.83352	1.04758	0.16939	-0.0445226	-0.0975885	0.582629	-0.183804	0	0	-0.0854695	0.0233468	-0.225923	0.0780307	-0.457148	0	0	-0.200577	0.00423355	-0.0335757	0.792911	-0.364558	0.873866	1.16369	1.5708	0	0	0.593448	-0.342889	0.611031	1.1859	1.5708	0	0
5.79	3.11525	1.49103	-1.56493	0.621833	1.83579	1.04717	0.161995	-0.0532398	-0.106704	0.579487	-0.182725	0	0	-0.0913603	0.0304491	-0.226174	0.0796639	-0.455644	0	0	-0.200594	-0.00271858	-0.0357929	0.792824	-0.36069	0.875093	1.1596	1.5708	0	0	0.593856	-0.343639	0.610552	1.18145	1.5708	0	0
5.8	-3.0931	1.48498	-1.63657	0.622799	1.8379	1.04707	0.153	-0.0600356	-0.120366	0.578466	-0.178373	0	0	-0.0998301	0.0357585	-0.22485	0.0804349	-0.453935	0	0	-0.203273	-0.00882582	-0.0359946	0.791729	-0.359054	0.874091	1.15669	1.5708	0	0	0.598046	-0.343149	0.615032	1.17423	1.5708	0	0
5.81	-3.04995	1.47837	-1.67653	0.623816	1.83988	1.04723	0.144181	-0.064732	-0.135077	0.579453	-0.173836	0	0	-0.108389	0.0388104	-0.223018	0.0815064	-0.45219	0	0	-0.207337	-0.0126907	-0.0353423	0.789747	-0.358182	0.870773	1.15501	1.5708	0	0	0.602816	-0.341664	0.61969	1.16669	1.5708	0	0
5.82	-3.03604	1.47038	-1.68708	0.62475	1.84173	1.04777	0.132829	-0.0672774	-0.14844	0.578842	-0.170198	0	0	-0.118424	0.0396438	-0.221182	0.0826221	-0.44999	0	0	-0.2136	-0.0141454	-0.0339427	0.788538	-0.358746	0.868174	1.15359	1.5708	0	0	0.609292	-0.339023	0.626402	1.15761	1.5708	0	0
5.83	-3.03499	1.46555	-1.68561	0.625627	1.84355	1.0483	0.124661	-0.06752	-0.154325	0.57813	-0.16948	0	0	-0.124503	0.0390381	-0.220678	0.0852099	-0.448467	0	0	-0.216621	-0.0131819	-0.0342072	0.789617	-0.357589	0.870381	1.14975	1.5708	0	0	0.610958	-0.336592	0.626803	1.15063	1.5708	0	0
5.84	-3.04292	1.46187	-1.67587	0.626432	1.8453	1.04885	0.11712	-0.065689	-0.153755	0.575821	-0.169165	0	0	-0.129607	0.0376176	-0.22152	0.0871673	-0.446722	0	0	-0.218442	-0.0104928	-0.0344938	0.791269	-0.355958	0.873778	1.14494	1.5708	0	0	0.611238	-0.333849	0.625604	1.14382	1.5708	0	0
5.85	-3.05322	1.45949	-1.66386	0.62726	1.8471	1.04934	0.110477	-0.0625015	-0.148947	0.572283	-0.168456	0	0	-0.133703	0.0356773	-0.222999	0.0882904	-0.444096	0	0	-0.218536	-0.00746212	-0.035487	0.793108	-0.353603	0.878423	1.13919	1.5708	0	0	0.609856	-0.33143	0.62281	1.13785	1.5708	0	0
5.86	-3.06119	1.45811	-1.65451	0.628096	1.8489	1.0497	0.105351	-0.0593299	-0.142182	0.569719	-0.166779	0	0	-0.136615	0.0338606	-0.225383	0.0897183	-0.438854	0	0	-0.217454	-0.00440295	-0.0368579	0.795363	-0.350855	0.884196	1.13333	1.5708	0	0	0.607191	-0.329247	0.618272	1.13283	1.5708	0	0
5.87	-3.06495	1.45601	-1.64918	0.628951	1.8507	1.05011	0.0988758	-0.0570247	-0.136346	0.565937	-0.167757	0	0	-0.141478	0.0328455	-0.226425	0.0878673	-0.444894	0	0	-0.217253	-0.0030204	-0.0356631	0.791719	-0.349221	0.878898	1.13044	1.5708	0	0	0.608509	-0.326262	0.620543	1.12605	1.5708	0	0
5.88	-3.06609	1.4528	-1.64582	0.629774	1.85247	1.05052	0.0907578	-0.0557533	-0.134588	0.561544	-0.166913	0	0	-0.148063	0.0320179	-0.226725	0.0847294	-0.450306	0	0	-0.216487	-0.0023924	-0.0326849	0.787967	-0.349925	0.875592	1.12683	1.5708	0	0	0.614202	-0.321926	0.630554	1.11378	1.5708	0	0
5.89	-3.06232	1.45101	-1.6468	0.630588	1.85429	1.05075	0.0848306	-0.0557609	-0.137626	0.559095	-0.165767	0	0	-0.153017	0.0314633	-0.226401	0.081968	-0.451771	0	0	-0.214074	-0.0017416	-0.0332432	0.786751	-0.348181	0.877091	1.12121	1.5708	0	0	0.615713	-0.319563	0.634754	1.10507	1.5708	0	0
5.9	-3.05872	1.44904	-1.64714	0.631405	1.85615	1.051	0.0785941	-0.0561601	-0.144348	0.556512	-0.16472	0	0	-0.158616	0.0308419	-0.225282	0.0785526	-0.453383	0	0	-0.211564	-0.00105015	-0.0344929	0.785658	-0.34622	0.879168	1.1153	1.5708	0	0	0.617452	-0.317694	0.639872	1.09626	1.5708	0	0
5.91	-3.05726	1.44687	-1.64496	0.632212	1.85799	1.05126	0.0719184	-0.056388	-0.153219	0.553506	-0.163752	0	0	-0.164814	0.0299609	-0.22354	0.0743559	-0.454923	0	0	-0.209138	2.79665e-05	-0.0361576	0.784678	-0.344116	0.881313	1.10927	1.5708	0	0	0.619625	-0.316067	0.64585	1.08732	1.5708	0	0
5.92	-3.05795	1.44501	-1.64035	0.632984	1.8598	1.0515	0.065301	-0.0561348	-0.162438	0.550027	-0.162825	0	0	-0.170707	0.0287174	-0.221222	0.0700224	-0.456298	0	0	-0.206423	0.00152846	-0.0380311	0.783464	-0.342054	0.883016	1.10343	1.5708	0	0	0.621984	-0.314422	0.652191	1.07848	1.5708	0	0
5.93	-3.0586	1.44457	-1.63593	0.633754	1.86155	1.05162	0.0602143	-0.0554671	-0.170107	0.546818	-0.161861	0	0	-0.17426	0.0270807	-0.219634	0.0674739	-0.455413	0	0	-0.202691	0.00348407	-0.0413087	0.783122	-0.338778	0.885911	1.0973	1.5708	0	0	0.621361	-0.313434	0.65355	1.07249	1.5708	0	0
5.94	-3.06142	1.44337	-1.62913	0.634455	1.86321	1.05183	0.0535269	-0.0544475	-0.177556	0.541628	-0.161055	0	0	-0.179154	0.0253671	-0.215749	0.0632461	-0.45724	0	0	-0.199635	0.005522	-0.0430924	0.781786	-0.337172	0.887435	1.09205	1.5708	0	0	0.623956	-0.311839	0.66095	1.06408	1.5708	0	0
5.95	-3.06597	1.44253	-1.62096	0.635101	1.86479	1.05203	0.0471622	-0.0530616	-0.18343	0.536103	-0.160476	0	0	-0.183093	0.0233779	-0.212741	0.0601034	-0.458682	0	0	-0.196678	0.00791227	-0.0445691	0.780236	-0.336027	0.888598	1.08781	1.5708	0	0	0.625933	-0.309969	0.667468	1.05644	1.5708	0	0
5.96	-3.07222	1.44123	-1.61115	0.635715	1.86629	1.05228	0.0398696	-0.0512624	-0.188695	0.529356	-0.160177	0	0	-0.187266	0.0212185	-0.209582	0.0573641	-0.460242	0	0	-0.193838	0.0101151	-0.0443173	0.777129	-0.336452	0.887968	1.08456	1.5708	0	0	0.630003	-0.306805	0.677956	1.04648	1.5708	0	0
5.97	-3.07674	1.44062	-1.60308	0.636402	1.86781	1.05244	0.0331775	-0.0488548	-0.190733	0.522538	-0.159413	0	0	-0.190477	0.0191207	-0.206502	0.0550538	-0.461212	0	0	-0.190248	0.0118355	-0.0442854	0.773163	-0.336565	0.886439	1.082	1.5708	0	0	0.633296	-0.304118	0.687705	1.03771	1.5708	0	0
5.98	-3.0819	1.43913	-1.59402	0.637001	1.86926	1.05273	0.025083	-0.0467383	-0.195712	0.51426	-0.159554	0	0	-0.195013	0.0171737	-0.202007	0.0513984	-0.463627	0	0	-0.187218	0.0124484	-0.040087	0.764412	-0.34058	0.877734	1.08293	1.5708	0	0	0.643984	-0.299208	0.710805	1.02303	1.5708	0	0
5.99	-3.08662	1.43795	-1.58602	0.637559	1.87064	1.05295	0.0180075	-0.0447586	-0.199809	0.507243	-0.159383	0	0	-0.198435	0.015308	-0.199755	0.0494208	-0.464036	0	0	-0.18449	0.0145871	-0.0404297	0.761081	-0.340413	0.87679	1.08047	1.5708	0	0	0.647309	-0.297199	0.720625	1.0148	1.5708	0	0
6	-3.09047	1.43673	-1.57935	0.638079	1.87192	1.05314	0.0114463	-0.0430648	-0.203486	0.501139	-0.159264	0	0	-0.201578	0.0136944	-0.19825	0.0480669	-0.464466	0	0	-0.182598	0.0164606	-0.0413537	0.758738	-0.339679	0.876394	1.07822	1.5708	0	0	0.649071	-0.296035	0.72696	1.00896	1.5708	0	0
6.01	-3.09358	1.43567	-1.57373	0.638582	1.87312	1.0533	0.00516033	-0.0416065	-0.206727	0.495109	-0.159135	0	0	-0.204317	0.0122172	-0.197261	0.0470083	-0.464703	0	0	-0.18125	0.0179615	-0.0427959	0.757073	-0.338432	0.876218	1.07615	1.5708	0	0	0.649711	-0.295787	0.730956	1.00514	1.5708	0	0
6.02	-3.0957	1.4349	-1.56913	0.639092	1.87426	1.05342	-0.000834051	-0.0403309	-0.209973	0.488693	-0.159057	0	0	-0.206415	0.0107002	-0.196438	0.0464282	-0.464618	0	0	-0.179948	0.0191024	-0.0447265	0.755972	-0.33678	0.876651	1.074	1.5708	0	0	0.64988	-0.29634	0.734102	1.00242	1.5708	0	0
6.03	-3.09679	1.43455	-1.56573	0.639575	1.8753	1.05349	-0.00596915	-0.0394534	-0.213713	0.482759	-0.159035	0	0	-0.207688	0.00932983	-0.19584	0.0464181	-0.464287	0	0	-0.178564	0.0198263	-0.0468792	0.755707	-0.335114	0.878277	1.07189	1.5708	0	0	0.649942	-0.297449	0.736782	1.00052	1.5708	0	0
6.04	-3.0976	1.43431	-1.56332	0.640037	1.87624	1.05352	-0.0102528	-0.038819	-0.217497	0.478048	-0.158942	0	0	-0.208501	0.00820179	-0.196159	0.0470363	-0.46375	0	0	-0.177487	0.0202629	-0.0484147	0.756025	-0.333873	0.880458	1.0702	1.5708	0	0	0.650204	-0.298586	0.739114	0.999055	1.5708	0	0
6.05	-3.09793	1.43433	-1.56154	0.640515	1.8771	1.05351	-0.0137066	-0.0383699	-0.221977	0.474078	-0.158826	0	0	-0.208749	0.00711414	-0.196614	0.0479345	-0.462871	0	0	-0.176567	0.0203897	-0.0492875	0.755456	-0.333072	0.880696	1.06973	1.5708	0	0	0.650744	-0.299467	0.741275	0.998074	1.5708	0	0
6.06	-3.09776	1.43501	-1.56038	0.640971	1.87787	1.05344	-0.0158006	-0.0381381	-0.226734	0.47106	-0.158374	0	0	-0.208028	0.00615982	-0.196625	0.0490949	-0.462893	0	0	-0.175329	0.0207851	-0.0504923	0.755146	-0.332055	0.881049	1.06961	1.5708	0	0	0.650497	-0.300561	0.74181	0.997999	1.5708	0	0
6.07	-3.09773	1.43555	-1.55966	0.641373	1.87845	1.05339	-0.0173453	-0.0380038	-0.230373	0.468872	-0.158364	0	0	-0.207192	0.0053852	-0.19665	0.050926	-0.461992	0	0	-0.174757	0.0213534	-0.0506685	0.754865	-0.331839	0.880707	1.07032	1.5708	0	0	0.651057	-0.301186	0.743157	0.997665	1.5708	0	0
6.08	-3.09798	1.43628	-1.55884	0.64178	1.87899	1.05331	-0.0184076	-0.0378157	-0.233997	0.46685	-0.158311	0	0	-0.206006	0.00455363	-0.196755	0.053209	-0.461045	0	0	-0.174032	0.0218782	-0.0505386	0.754247	-0.331793	0.879914	1.07134	1.5708	0	0	0.65154	-0.301817	0.744615	0.997646	1.5708	0	0
6.09	-3.10221	1.43656	-1.55488	0.642355	1.87969	1.05326	-0.0204086	-0.036601	-0.237328	0.463205	-0.158453	0	0	-0.205189	0.00282872	-0.200299	0.0563759	-0.456773	0	0	-0.173111	0.0222436	-0.0488131	0.752913	-0.332764	0.879559	1.07291	1.5708	0	0	0.653044	-0.302446	0.74923	0.996934	1.5708	0	0
6.1	-3.10538	1.43679	-1.55319	0.642934	1.88027	1.05321	-0.0214083	-0.0357027	-0.238519	0.461448	-0.158192	0	0	-0.20524	0.00191143	-0.203042	0.0571492	-0.455653	0	0	-0.172519	0.022794	-0.0471035	0.753436	-0.333332	0.882062	1.07377	1.5708	0	0	0.652734	-0.303239	0.749872	0.997422	1.5708	0	0
6.11	-3.10818	1.43708	-1.55206	0.643461	1.88076	1.05318	-0.0217969	-0.0349481	-0.238712	0.460563	-0.15789	0	0	-0.205132	0.0012471	-0.204841	0.0579238	-0.454461	0	0	-0.172164	0.0233839	-0.0453912	0.754253	-0.33407	0.884788	1.07478	1.5708	0	0	0.652223	-0.304013	0.749925	0.998228	1.5708	0	0
6.12	-3.10982	1.43733	-1.55199	0.643939	1.88117	1.05317	-0.0219143	-0.0344039	-0.23844	0.460217	-0.15811	0	0	-0.205469	0.000910395	-0.204781	0.0579445	-0.456162	0	0	-0.172128	0.0233185	-0.042521	0.753476	-0.33604	0.884616	1.07733	1.5708	0	0	0.653329	-0.304098	0.752641	0.998239	1.5708	0	0
6.13	-3.11233	1.43842	-1.55128	0.644371	1.88151	1.05303	-0.0202649	-0.0338895	-0.236808	0.461827	-0.15531	0	0	-0.203359	0.000219739	-0.207238	0.061553	-0.445815	0	0	-0.17127	0.0253826	-0.0443868	0.758941	-0.334302	0.894811	1.0757	1.5708	0	0	0.647405	-0.307008	0.743066	1.00339	1.5708	0	0
6.14	-3.11361	1.43823	-1.55157	0.644776	1.88181	1.05303	-0.0204403	-0.0334266	-0.235745	0.461894	-0.15639	0	0	-0.204265	0.000158421	-0.206977	0.0606436	-0.449756	0	0	-0.172076	0.0246761	-0.0406022	0.756892	-0.337369	0.891872	1.07994	1.5708	0	0	0.649697	-0.306976	0.747936	1.00375	1.5708	0	0
6.15	-3.11514	1.43847	-1.55166	0.645161	1.88209	1.05299	-0.0197972	-0.0330262	-0.234262	0.462832	-0.156652	0	0	-0.204704	0.00011221	-0.207317	0.059901	-0.451442	0	0	-0.172484	0.0242741	-0.0376907	0.755931	-0.339943	0.89095	1.08366	1.5708	0	0	0.650891	-0.307543	0.750696	1.00506	1.5708	0	0
